<?xml version="1.0" encoding="UTF-8"?>
<svg version="1.1" xmlns="http://www.w3.org/2000/svg" width="800" height="306">
<path d="M0 0 C2.97472925 2.40376528 5.70721532 5.01191425 8.4375 7.6875 C9.17814697 8.39849854 9.91879395 9.10949707 10.68188477 9.84204102 C15.33495503 14.32351303 19.93631604 18.85800108 24.43359375 23.49609375 C25.94512538 25.09625213 25.94512538 25.09625213 28 26 C28 26.66 28 27.32 28 28 C28.85803223 28.36798706 28.85803223 28.36798706 29.73339844 28.7434082 C32.38736797 30.21475473 34.14499183 31.93552401 36.265625 34.10546875 C37.07386719 34.92466797 37.88210937 35.74386719 38.71484375 36.58789062 C39.96974609 37.87469727 39.96974609 37.87469727 41.25 39.1875 C46.48062092 44.52897395 51.65257047 49.74539758 57.49511719 54.4230957 C59.36333953 56.38072843 59.81714468 57.29190086 60 60 C59.18652344 63.09912109 59.18652344 63.09912109 57.859375 66.7734375 C57.62145737 67.44109634 57.38353973 68.10875519 57.13841248 68.79664612 C56.35260345 70.99329895 55.55151244 73.18403339 54.75 75.375 C54.1987754 76.90537436 53.64841105 78.43605881 53.09887695 79.96704102 C51.68693964 83.89095359 50.26147677 87.80978332 48.8303833 91.72674561 C48.03865332 93.89418282 47.24913336 96.06240992 46.46044922 98.23095703 C43.71389477 105.77910877 40.9445433 113.31856399 38.16064453 120.85302734 C37.17281188 123.5314377 36.19121371 126.21192781 35.21484375 128.89453125 C31.67628617 138.60384414 28.02815749 148.27207382 24.35662842 157.9317627 C23.79741378 159.40432804 23.23945435 160.87737085 22.68292236 162.35095215 C19.70729935 170.22356291 16.62760187 178.03613235 13.27734375 185.7578125 C12.85122803 186.74620369 12.85122803 186.74620369 12.41650391 187.75456238 C8.78399575 196.00767292 4.4485714 202.31307927 -4 206 C-9.29061162 207.56425204 -14.4750633 208.29078614 -20 208 C-20 207.34 -20 206.68 -20 206 C-19.08806885 205.4428833 -18.1761377 204.8857666 -17.23657227 204.31176758 C-13.53434622 201.6674002 -12.03577588 199.03695842 -10.21484375 195.01171875 C-9.88354965 194.31519699 -9.55225555 193.61867523 -9.21092224 192.90104675 C-8.12490174 190.6077378 -7.06281581 188.30414196 -6 186 C-5.24392655 184.39590322 -4.48625014 182.7925611 -3.72705078 181.18994141 C-1.3120975 176.07642969 1.06554374 170.94606826 3.4375 165.8125 C3.85320251 164.9148996 4.26890503 164.01729919 4.69720459 163.09249878 C10.17860152 151.25169397 15.57168903 139.38878796 20.6015625 127.34765625 C21.35460017 125.54499346 22.1263114 123.7473772 23 122 C18.58826243 129.67969133 14.2278423 137.36566447 10.3125 145.3125 C4.3993462 157.3062759 -1.78456823 169.16059952 -8 181 C-8.57459961 182.09538086 -9.14919922 183.19076172 -9.74121094 184.31933594 C-11.35728782 187.38604979 -12.98793323 190.44444917 -14.625 193.5 C-15.10936523 194.4192627 -15.59373047 195.33852539 -16.09277344 196.28564453 C-16.77774902 197.55190674 -16.77774902 197.55190674 -17.4765625 198.84375 C-17.86924316 199.57787109 -18.26192383 200.31199219 -18.66650391 201.06835938 C-20.60162759 203.87148983 -22.71251328 205.68243635 -26.04296875 206.50390625 C-32.83414655 206.68945756 -37.02439849 204.52951683 -42 200 C-48.86985292 191.20646652 -53.11821312 180.59469141 -57.6875 170.5 C-58.48661999 168.74935476 -59.28626781 166.99895036 -60.08642578 165.2487793 C-62.4037364 160.17160387 -64.70445196 155.08704534 -67 150 C-67.46427399 148.97256683 -67.46427399 148.97256683 -67.93792725 147.92437744 C-72.80479999 137.15088317 -77.61851249 126.35963854 -82.15234375 115.44140625 C-82.68613332 114.16486259 -83.22014864 112.8884133 -83.75439453 111.61206055 C-84.76234694 109.2039235 -85.75104308 106.79072754 -86.72998047 104.37036133 C-92.31250502 90.98944605 -99.85643365 82.25560358 -113.3125 76.6640625 C-113.869375 76.44492188 -114.42625 76.22578125 -115 76 C-115 75.34 -115 74.68 -115 74 C-111.85288822 74.05264095 -108.70836405 74.14787597 -105.5625 74.25 C-104.68400391 74.26417969 -103.80550781 74.27835937 -102.90039062 74.29296875 C-95.15572867 74.57874963 -88.32776858 76.13471677 -82.85546875 81.9609375 C-78.92152179 87.05383686 -76.18268963 92.89388981 -73.3125 98.625 C-72.70529632 99.81994228 -72.09704788 101.01435421 -71.48779297 102.20825195 C-70.25441456 104.6264674 -69.02508466 107.04667513 -67.79833984 109.46826172 C-65.11835838 114.73144551 -62.37464975 119.96047018 -59.625 125.1875 C-58.72125896 126.91010631 -57.81760292 128.63275721 -56.9140625 130.35546875 C-56.27613087 131.57035935 -55.63814846 132.78522329 -55 134 C-60.18470205 121.93130767 -65.44236288 109.89689198 -70.875 97.9375 C-71.32657471 96.93396484 -71.77814941 95.93042969 -72.2434082 94.89648438 C-74.50843071 89.94050887 -76.91606178 85.48246835 -80 81 C-80 80.34 -80 79.68 -80 79 C-80.99 78.67 -81.98 78.34 -83 78 C-83 77.34 -83 76.68 -83 76 C-73.50853824 77.09265969 -65.25905237 78.93023885 -58.1875 85.6875 C-55.36408628 89.96295506 -53.16113836 94.36026792 -51 99 C-50.44054687 100.1859375 -49.88109375 101.371875 -49.3046875 102.59375 C-44.06556236 113.73501962 -38.99698734 124.94336692 -34.125 136.25 C-30.69671207 144.1761146 -27.180813 152.0447766 -23.47265625 159.84375 C-21.90595996 163.20155 -20.44335446 166.58765154 -19 170 C-16.05463137 167.25481357 -14.02105489 164.62746453 -12.08203125 161.10546875 C-11.29131226 159.68439819 -11.29131226 159.68439819 -10.48461914 158.23461914 C-9.93281982 157.22906982 -9.38102051 156.22352051 -8.8125 155.1875 C-7.64211702 153.08510621 -6.47024233 150.98354215 -5.296875 148.8828125 C-4.72904297 147.86477539 -4.16121094 146.84673828 -3.57617188 145.79785156 C-1.63245506 142.34757357 0.37906544 138.9452284 2.4375 135.5625 C6.80041331 128.37373491 11.03509568 121.11288771 15.26293945 113.84399414 C18.67306243 107.98325915 22.09646745 102.13075952 25.5390625 96.2890625 C26.30928665 94.98065615 27.0794691 93.67222525 27.84960938 92.36376953 C28.97580458 90.45042606 30.1027863 88.53757405 31.23266602 86.62640381 C35.04072844 80.18445303 38.77200122 73.75705444 42 67 C41.32122803 66.56768066 40.64245605 66.13536133 39.94311523 65.68994141 C16.9384433 51.02847889 16.9384433 51.02847889 6.84619141 44.24121094 C2.49826329 41.31930344 -1.90650383 38.49928667 -6.3359375 35.703125 C-9.18712749 33.88037011 -12.00140045 32.0089559 -14.8125 30.125 C-15.81152344 29.46113281 -16.81054688 28.79726563 -17.83984375 28.11328125 C-20.03244839 26.64702772 -22.20885566 25.16649926 -24.37890625 23.66796875 C-35.00893598 16.43793589 -45.86614111 11.33288582 -59 11 C-58.67 10.01 -58.34 9.02 -58 8 C-55.32593861 6.77339372 -52.7708959 5.76191865 -50 4.8125 C-48.90365234 4.40354492 -48.90365234 4.40354492 -47.78515625 3.98632812 C-41.06320767 1.62951135 -35.0173512 0.89363789 -28.25 3.375 C-23.44037696 6.08570731 -19.17788533 9.59164321 -14.8515625 13 C-10.32550499 16.55325688 -5.69609504 19.96386828 -1.0625 23.375 C0.14466675 24.26711182 0.14466675 24.26711182 1.3762207 25.17724609 C5.51969111 28.22677802 9.68962112 31.19098904 14 34 C6.64715711 27.65616037 -0.72046806 21.3449904 -8.26953125 15.234375 C-10.24507363 13.61776521 -12.19732999 11.98689862 -14.13671875 10.328125 C-14.6663623 9.87775879 -15.19600586 9.42739258 -15.74169922 8.96337891 C-17.22324032 7.70105247 -18.69967931 6.43274493 -20.17578125 5.1640625 C-22.99845277 3.00118557 -25.77383524 1.47726895 -29 0 C-29 -0.66 -29 -1.32 -29 -2 C-18.99373742 -5.13921963 -9.0245099 -5.88214123 0 0 Z M15 35 C15.99 36.485 15.99 36.485 17 38 C17.66 37.67 18.32 37.34 19 37 C17.68 36.34 16.36 35.68 15 35 Z M20 39 C20.33 39.66 20.66 40.32 21 41 C21.66 40.67 22.32 40.34 23 40 C22.01 39.67 21.02 39.34 20 39 Z M25 43 C25.33 43.66 25.66 44.32 26 45 C26.66 44.67 27.32 44.34 28 44 C27.01 43.67 26.02 43.34 25 43 Z M33 99 C34 101 34 101 34 101 Z M31 103 C32 105 32 105 32 105 Z M30 105 C31 107 31 107 31 107 Z M28 109 C29 111 29 111 29 111 Z M26 113 C27 116 27 116 27 116 Z M-54 136 C-53 138 -53 138 -53 138 Z M-53 138 C-52 140 -52 140 -52 140 Z M-52 140 C-51 142 -51 142 -51 142 Z M-51 142 C-50 144 -50 144 -50 144 Z M-50 144 C-49 146 -49 146 -49 146 Z M-49 146 C-48 148 -48 148 -48 148 Z M-48 148 C-47 150 -47 150 -47 150 Z " fill="#FDC038" transform="translate(135,18)"/>
<path d="M0 0 C0 0.66 0 1.32 0 2 C0.99 2.33 1.98 2.66 3 3 C3 3.66 3 4.32 3 5 C3.66 5 4.32 5 5 5 C15.20882226 18.82851083 18.52495636 33.38329053 16.25 50.375 C13.63344666 65.98346749 6.54258153 79.34042216 -6.4140625 88.75390625 C-23.04985447 99.28990783 -42.04097603 100.92255668 -61 97 C-75.65357389 92.73714214 -88.13850429 84.22427112 -95.64453125 70.76171875 C-102.27245331 57.25756632 -103.50097782 41.1779363 -99.25 26.6875 C-98.54494925 24.77449517 -97.79979083 22.8753716 -97 21 C-96.68804687 20.2471875 -96.37609375 19.494375 -96.0546875 18.71875 C-89.81271845 5.08083442 -78.57716595 -3.25305145 -65 -9 C-43.62732191 -16.90665548 -18.13024789 -14.23768016 0 0 Z M-65 22.75 C-66.04820727 24.13137828 -67.05096864 25.54869578 -68 27 C-68.43183594 27.65613281 -68.86367188 28.31226563 -69.30859375 28.98828125 C-73.43548242 36.57090369 -73.13095933 45.67742266 -71.375 53.94140625 C-68.8626445 61.28780292 -64.29205072 65.74700765 -57.4921875 69.31640625 C-48.5327425 73.06474548 -38.26621273 73.70263725 -29.12890625 70.1015625 C-20.75422676 65.76824211 -16.20507532 60.68792074 -13.2890625 51.84375 C-10.6967827 42.28261411 -12.74236538 33.75626742 -17 25 C-17.66 24.01 -18.32 23.02 -19 22 C-19.66 22 -20.32 22 -21 22 C-21 21.34 -21 20.68 -21 20 C-22.6029053 19.18501438 -24.20737278 18.37310073 -25.8125 17.5625 C-26.70582031 17.11003906 -27.59914063 16.65757812 -28.51953125 16.19140625 C-40.19951222 10.58133665 -56.12042506 13.34367061 -65 22.75 Z " fill="#000000" transform="translate(427,129)"/>
<path d="M0 0 C9.91588411 9.03053731 15.31530355 21.28586917 16.25 34.546875 C16.94470987 51.27175579 12.55677161 68.43169477 1 81 C-12.09435871 93.18660421 -27.57344 98.42170617 -45.28125 98.1484375 C-62.44491416 97.21134089 -77.65681899 91.89720739 -89.75 79.375 C-100.45097052 66.27598067 -103.02193315 51.44825738 -102 35 C-99.84009542 19.78991564 -92.02683972 7.18646063 -80.0625 -2.3125 C-56.36668615 -18.92303089 -22.4445232 -18.7290447 0 0 Z M-65.5 21.2265625 C-72.32074541 29.29067296 -73.74669161 37.69842135 -73 48 C-71.82045781 54.88732686 -69.4912569 60.51338054 -64 65 C-54.47047841 70.79599654 -45.02308759 72.7977469 -33.94921875 70.31640625 C-25.55213388 67.51737796 -20.21822218 63.78236102 -16.125 55.875 C-12.02249012 47.15377038 -11.86918769 38.52755759 -14.96875 29.38671875 C-18.30559175 21.66395243 -23.30217508 17.26107856 -31 14 C-42.51137991 10.23527198 -56.68262182 12.87548797 -65.5 21.2265625 Z " fill="#000000" transform="translate(657,130)"/>
<path d="M0 0 C5.88579619 -0.07490245 11.7713068 -0.12895322 17.6574707 -0.16479492 C19.65426475 -0.1797576 21.65102664 -0.20013511 23.64770508 -0.22631836 C53.69728965 -0.61012222 53.69728965 -0.61012222 64 8 C70.90075326 14.90075326 74.07873776 23.5254553 74.25 33.1875 C74.13384582 42.78957899 71.12013219 51.70838013 64.3671875 58.6875 C60.55197376 62.10921636 56.46276543 64.507668 52 67 C52.33620361 67.54188965 52.67240723 68.0837793 53.01879883 68.64208984 C56.41851475 74.1234176 59.81257584 79.60821234 63.203125 85.09521484 C64.90284855 87.84294729 66.60745986 90.58759616 68.3125 93.33203125 C69.31277855 94.9503487 70.31279207 96.56883 71.3125 98.1875 C71.78598877 98.94659668 72.25947754 99.70569336 72.74731445 100.48779297 C76 105.77226467 76 105.77226467 76 108 C71.55288354 108.22346359 67.10878018 108.38620917 62.65771484 108.49438477 C61.14606802 108.53949166 59.63481066 108.60080227 58.12451172 108.67895508 C45.63036715 109.30901576 45.63036715 109.30901576 41.79150391 106.22680664 C40.20864427 103.88410419 39.09227055 101.60414859 38 99 C37.25795377 97.69533286 36.500978 96.39899879 35.7265625 95.11328125 C35.02248214 93.84832887 34.3220031 92.58136577 33.625 91.3125 C32.85852646 89.93334159 32.09158897 88.55444094 31.32421875 87.17578125 C30.7506665 86.14251709 30.7506665 86.14251709 30.16552734 85.08837891 C28.28086938 81.71146976 26.36018209 78.35536235 24.4375 75 C23.91760498 74.09181519 23.91760498 74.09181519 23.38720703 73.1652832 C22.5919697 71.77656998 21.79606746 70.38823753 21 69 C20.67 69 20.34 69 20 69 C19.82609741 70.50566528 19.82609741 70.50566528 19.64868164 72.04174805 C19.21651999 75.77864524 18.78163736 79.51522167 18.34594727 83.25170898 C18.15803411 84.86653205 17.97085127 86.48144028 17.78442383 88.09643555 C17.51577303 90.42259323 17.24446608 92.74842834 16.97265625 95.07421875 C16.89032242 95.79212082 16.80798859 96.51002289 16.72315979 97.24967957 C16.29500977 100.89036938 15.72055504 104.3972248 15 108 C5.76 108 -3.48 108 -13 108 C-13 97.8747875 -13 97.8747875 -12.55116272 94.29336548 C-12.45163803 93.47757019 -12.35211334 92.6617749 -12.24957275 91.82125854 C-12.13893494 90.96065826 -12.02829712 90.10005798 -11.91430664 89.21337891 C-11.79887009 88.28054077 -11.68343353 87.34770264 -11.5644989 86.38659668 C-11.18512714 83.33254872 -10.79783336 80.27956638 -10.41015625 77.2265625 C-10.14311337 75.0943183 -9.87647222 72.96202375 -9.61021423 70.8296814 C-9.0529187 66.37608426 -8.49188986 61.92297903 -7.92797852 57.47021484 C-7.20468181 51.75775326 -6.48904097 46.04436509 -5.77594852 40.33062172 C-5.22676829 35.93465804 -4.67444148 31.53909447 -4.12106133 27.14365768 C-3.85595021 25.03617412 -3.59162052 22.9285921 -3.32808113 20.82091141 C-2.96015594 17.88362761 -2.58821055 14.94688138 -2.21508789 12.01025391 C-2.1064743 11.13750824 -1.99786072 10.26476257 -1.88595581 9.36557007 C-1.4698958 6.11790699 -1.03818196 3.11454588 0 0 Z M25 23 C24.01 31.58 23.02 40.16 22 49 C33.18960405 49.11107704 33.18960405 49.11107704 42.5 43.875 C44.84323728 39.38379522 45.67515109 34.92749941 44.5234375 29.93359375 C42.97022934 25.84575469 42.03008596 25.01504298 38 23 C33.71 23 29.42 23 25 23 Z " fill="#000000" transform="translate(467,118)"/>
<path d="M0 0 C28.71 0 57.42 0 87 0 C86.13729679 3.45081284 85.69526574 4.74499103 83.734375 7.44140625 C83.26322266 8.09753906 82.79207031 8.75367187 82.30664062 9.4296875 C81.79294922 10.13351563 81.27925781 10.83734375 80.75 11.5625 C79.64973362 13.09411327 78.55082316 14.62670131 77.453125 16.16015625 C76.88271484 16.95566895 76.31230469 17.75118164 75.72460938 18.57080078 C72.92812816 22.5097855 70.21515097 26.5047205 67.5 30.5 C63.34466336 36.60102067 59.14436703 42.66570835 54.875 48.6875 C50.92032765 54.26597098 46.99894466 59.86511079 43.125 65.5 C42.69687012 66.12221436 42.26874023 66.74442871 41.82763672 67.38549805 C38.50622332 72.22831226 35.25816982 77.11274527 32 82 C47.18 82.33 62.36 82.66 78 83 C77 98 77 98 75 108 C43.98 108 12.96 108 -19 108 C-17.3910875 104.78217501 -15.77316285 102.1026854 -13.7265625 99.17578125 C-13.07252441 98.23790771 -12.41848633 97.30003418 -11.74462891 96.33374023 C-10.6954126 94.83822632 -10.6954126 94.83822632 -9.625 93.3125 C-8.54677979 91.76961304 -8.54677979 91.76961304 -7.44677734 90.19555664 C-5.30125425 87.12796889 -3.15157483 84.06334542 -1 81 C-0.41734375 80.17016602 0.1653125 79.34033203 0.765625 78.48535156 C6.2289079 70.71144477 11.73446401 62.96901328 17.27392578 55.24926758 C20.94780282 50.11071459 24.52306315 44.90591326 28.07055664 39.67944336 C31.25827843 35.00383627 34.59496456 30.54004726 38 26 C17.705 25.505 17.705 25.505 -3 25 C-2.01 16.75 -1.02 8.5 0 0 Z " fill="#000000" transform="translate(693,118)"/>
<path d="M0 0 C28.71 0 57.42 0 87 0 C85.59407785 3.51480538 84.72992636 5.65065837 82.63671875 8.5390625 C81.93482422 9.51842773 81.93482422 9.51842773 81.21875 10.51757812 C80.7134375 11.21302734 80.208125 11.90847656 79.6875 12.625 C78.5963801 14.14752375 77.50658339 15.67099646 76.41796875 17.1953125 C75.85384277 17.98454102 75.2897168 18.77376953 74.70849609 19.58691406 C71.9214863 23.52329657 69.21169855 27.51153487 66.5 31.5 C61.86348972 38.3071741 57.15864674 45.06044494 52.39208984 51.77709961 C48.47678443 57.30156824 44.63106419 62.87131362 40.82763672 68.47338867 C37.67335744 73.09701086 34.36819462 77.50907384 31 82 C54.265 82.495 54.265 82.495 78 83 C76 104 76 104 75 108 C43.98 108 12.96 108 -19 108 C-17.28684988 103.7171247 -15.95151789 101.39284095 -13.1875 97.875 C-9.17432477 92.67181375 -5.43350465 87.31567688 -1.75 81.875 C3.08021638 74.75225003 8.04072571 67.74431238 13.11083984 60.79077148 C17.68393955 54.49498554 22.08616137 48.09086497 26.42382812 41.63085938 C30.08807902 36.20814826 33.95811057 31.19671498 38 26 C17.705 25.505 17.705 25.505 -3 25 C-2 12 -2 12 0 0 Z " fill="#000000" transform="translate(237,118)"/>
<path d="M0 0 C9.24 0 18.48 0 28 0 C28 9.00011623 28 9.00011623 27.59585571 12.17741394 C27.46135765 13.2637764 27.46135765 13.2637764 27.32414246 14.37208557 C27.22442642 15.13641403 27.12471039 15.90074249 27.02197266 16.68823242 C26.91789597 17.51707947 26.81381927 18.34592651 26.70658875 19.19989014 C26.36389165 21.91905037 26.01409757 24.6372442 25.6640625 27.35546875 C25.42184528 29.26340423 25.18002042 31.17138956 24.93856812 33.079422 C24.43213543 37.07328001 23.92244832 41.06670386 23.41015625 45.05981445 C22.75782721 50.14483841 22.11128561 55.23057546 21.46692848 60.3166151 C20.96740626 64.25736248 20.46592337 68.19785825 19.96375656 72.13826942 C19.72504677 74.01146636 19.48665865 75.88470433 19.24861526 77.75798607 C18.91313527 80.39382109 18.57531 83.02934541 18.23681641 85.66479492 C18.14114883 86.41900223 18.04548126 87.17320953 17.94691467 87.95027161 C17.0811776 94.65725244 16.02943027 101.30870326 15 108 C5.76 108 -3.48 108 -13 108 C-13 98.99983036 -13 98.99983036 -12.55116272 95.42034912 C-12.45163803 94.60737366 -12.35211334 93.79439819 -12.24957275 92.95678711 C-12.13893494 92.0941626 -12.02829712 91.23153809 -11.91430664 90.34277344 C-11.74115181 88.94614471 -11.74115181 88.94614471 -11.5644989 87.52130127 C-11.18451553 84.46670457 -10.79748797 81.41304789 -10.41015625 78.359375 C-10.14314942 76.2280927 -9.87650761 74.09676463 -9.61021423 71.96539307 C-9.0525184 67.51006788 -8.49152797 63.05517442 -7.92797852 58.60058594 C-7.20554231 52.88921025 -6.48962893 47.17704096 -5.77594852 41.46456528 C-5.22631899 37.06861595 -4.67412535 32.67299189 -4.12106133 28.27747345 C-3.85613518 26.17079317 -3.59180535 24.06403781 -3.32808113 21.95720673 C-2.95955999 19.01770167 -2.58780085 16.07862454 -2.21508789 13.13964844 C-2.1064743 12.268927 -1.99786072 11.39820557 -1.88595581 10.50109863 C-1.7836113 9.69940247 -1.68126678 8.8977063 -1.57582092 8.07171631 C-1.44446542 7.03092737 -1.44446542 7.03092737 -1.31045628 5.9691124 C-0.99320144 3.95687918 -0.49406675 1.97626699 0 0 Z " fill="#000000" transform="translate(188,118)"/>
<path d="M0 0 C2.97472925 2.40376528 5.70721532 5.01191425 8.4375 7.6875 C9.17814697 8.39849854 9.91879395 9.10949707 10.68188477 9.84204102 C15.33495503 14.32351303 19.93631604 18.85800108 24.43359375 23.49609375 C25.94512538 25.09625213 25.94512538 25.09625213 28 26 C28 26.66 28 27.32 28 28 C28.568396 28.24242432 29.13679199 28.48484863 29.72241211 28.73461914 C32.43568363 30.24205684 34.26184048 32.03633044 36.44140625 34.24609375 C37.27220703 35.08333984 38.10300781 35.92058594 38.95898438 36.78320312 C39.81814453 37.65912109 40.67730469 38.53503906 41.5625 39.4375 C42.42552734 40.30955078 43.28855469 41.18160156 44.17773438 42.08007812 C45.78035969 43.70013681 47.38092357 45.32223918 48.97875977 46.94702148 C50.64485094 48.63927425 52.31779137 50.32379807 54 52 C53.08333333 53.375 52.16666667 54.75 51.25 56.125 C50.70601563 56.94097656 50.16203125 57.75695312 49.6015625 58.59765625 C46.80078125 62.79882812 46.80078125 62.79882812 44 67 C40.46469699 65.68592419 37.40031614 64.12648647 34.2265625 62.09375 C33.32655518 61.51955322 32.42654785 60.94535645 31.49926758 60.35375977 C30.55075928 59.74201904 29.60225098 59.13027832 28.625 58.5 C27.64490967 57.872146 26.66481934 57.24429199 25.6550293 56.59741211 C19.39341132 52.57505504 13.17367421 48.49419451 6.99731445 44.34228516 C2.59907712 41.38636486 -1.85517459 38.5316892 -6.3359375 35.703125 C-9.18712749 33.88037011 -12.00140045 32.0089559 -14.8125 30.125 C-15.81152344 29.46113281 -16.81054688 28.79726563 -17.83984375 28.11328125 C-20.03244839 26.64702772 -22.20885566 25.16649926 -24.37890625 23.66796875 C-35.00893598 16.43793589 -45.86614111 11.33288582 -59 11 C-58.67 10.01 -58.34 9.02 -58 8 C-55.32593861 6.77339372 -52.7708959 5.76191865 -50 4.8125 C-49.26910156 4.53986328 -48.53820312 4.26722656 -47.78515625 3.98632812 C-41.06320767 1.62951135 -35.0173512 0.89363789 -28.25 3.375 C-23.44037696 6.08570731 -19.17788533 9.59164321 -14.8515625 13 C-10.32550499 16.55325688 -5.69609504 19.96386828 -1.0625 23.375 C0.14466675 24.26711182 0.14466675 24.26711182 1.3762207 25.17724609 C5.51969111 28.22677802 9.68962112 31.19098904 14 34 C6.64715711 27.65616037 -0.72046806 21.3449904 -8.26953125 15.234375 C-10.24507363 13.61776521 -12.19732999 11.98689862 -14.13671875 10.328125 C-14.6663623 9.87775879 -15.19600586 9.42739258 -15.74169922 8.96337891 C-17.22324032 7.70105247 -18.69967931 6.43274493 -20.17578125 5.1640625 C-22.99845277 3.00118557 -25.77383524 1.47726895 -29 0 C-29 -0.66 -29 -1.32 -29 -2 C-18.99373742 -5.13921963 -9.0245099 -5.88214123 0 0 Z M15 35 C15.99 36.485 15.99 36.485 17 38 C17.66 37.67 18.32 37.34 19 37 C17.68 36.34 16.36 35.68 15 35 Z M20 39 C20.33 39.66 20.66 40.32 21 41 C21.66 40.67 22.32 40.34 23 40 C22.01 39.67 21.02 39.34 20 39 Z M25 43 C25.33 43.66 25.66 44.32 26 45 C26.66 44.67 27.32 44.34 28 44 C27.01 43.67 26.02 43.34 25 43 Z " fill="#00B5FD" transform="translate(135,18)"/>
<path d="M0 0 C65.67 0 131.34 0 199 0 C199 1.32 199 2.64 199 4 C133.33 4 67.66 4 0 4 C0 2.68 0 1.36 0 0 Z " fill="#00B6FE" transform="translate(569,257)"/>
<path d="M0 0 C65.67 0 131.34 0 199 0 C199 1.32 199 2.64 199 4 C133.33 4 67.66 4 0 4 C0 2.68 0 1.36 0 0 Z " fill="#00B6FE" transform="translate(85,257)"/>
<path d="M0 0 C4.23146183 2.11573091 6.68591053 4.65879905 9.75 8.125 C10.25660156 8.68832031 10.76320313 9.25164062 11.28515625 9.83203125 C12.52884532 11.21651531 13.76516305 12.60761488 15 14 C15.33 9.71 15.66 5.42 16 1 C17.32 1 18.64 1 20 1 C20 8.26 20 15.52 20 23 C19.34 23 18.68 23 18 23 C16.484375 21.4609375 16.484375 21.4609375 14.75 19.375 C11.65323448 15.72639996 8.42455589 12.34103014 5 9 C4.67 13.29 4.34 17.58 4 22 C2.68 22 1.36 22 0 22 C0 14.74 0 7.48 0 0 Z " fill="#000000" transform="translate(385,248)"/>
<path d="M0 0 C3.85056955 3.19515346 5.80028474 5.26913438 6.375 10.25 C5.87558843 15.24411574 4.55256956 16.52817066 1 20 C-1.17718104 21.49681196 -2.74324313 21.944485 -5.3125 22.5 C-9.48194234 21.7242898 -12.10793007 19.00091127 -15 16 C-16.60306924 12.79386153 -16.48740461 9.47860003 -16 6 C-12.03249265 -0.51804779 -7.37798274 -2.31293903 0 0 Z M-11.5625 5.0625 C-13.44610971 8.91161549 -13.207644 10.92420151 -12 15 C-10.5 17.16666667 -10.5 17.16666667 -8 18 C-4.60314182 17.88081199 -2.05999385 17.58128695 0.9375 15.9375 C2.69043126 12.74097829 2.51780725 9.55067826 2 6 C1.16666667 3.83333333 1.16666667 3.83333333 -1 3 C-6.77697756 2.21816396 -6.77697756 2.21816396 -11.5625 5.0625 Z " fill="#000000" transform="translate(429,249)"/>
<path d="M0 0 C3.375 2 3.375 2 6 4 C5.67 4.99 5.34 5.98 5 7 C4.505 6.67 4.01 6.34 3.5 6 C-0.29663707 4.48134517 -2.90507419 4.54500824 -7 5 C-9.35067127 6.94527108 -9.35067127 6.94527108 -10 10 C-9.29614601 13.75815858 -9.29614601 13.75815858 -8 17 C-4.69432511 17.85387105 -4.69432511 17.85387105 -1 18 C1.46172153 16.207809 1.46172153 16.207809 3 14 C1.02 14 -0.96 14 -3 14 C-3 13.01 -3 12.02 -3 11 C0.3 11 3.6 11 7 11 C6.68169969 14.50130346 6.40659476 16.51208629 4.125 19.25 C-0.2173913 22.82608696 -0.2173913 22.82608696 -3.25 23.5 C-7.46419428 22.73378286 -10.07894471 20.03098747 -13 17 C-14.60306924 13.79386153 -14.48740461 10.47860003 -14 7 C-10.50204098 1.25335305 -6.69562884 -0.80347546 0 0 Z " fill="#000000" transform="translate(501,248)"/>
<path d="M0 0 C3.11429943 2.84925267 4.66786007 5.0035802 6 9 C6 12.87553592 5.16422008 14.78857666 3 18 C0.21598412 20.29983921 -1.91247666 21.74903307 -5.4375 22.5625 C-9.34113874 21.70560369 -12.10270287 19.71109551 -15 17 C-16.79931075 14.07612004 -17.01028971 12.4836163 -16.9375 9.0625 C-15.68997307 4.98724537 -13.97893741 3.04986449 -11 0 C-7.13559096 -1.28813635 -3.84871301 -1.21538306 0 0 Z M-11.4375 4.625 C-13.49791771 7.75683492 -13.6767545 9.31544773 -13 13 C-11.08333333 16.08333333 -11.08333333 16.08333333 -8 18 C-4.14789873 18.06641554 -2.00151995 17.87229157 0.9375 15.3125 C2.33817538 12.26397123 2.4842732 10.32073048 2 7 C0.56338689 4.47993156 0.56338689 4.47993156 -2 3 C-5.97487617 2.43216055 -8.06489221 2.37659481 -11.4375 4.625 Z " fill="#000000" transform="translate(474,249)"/>
<path d="M0 0 C0.99 0 1.98 0 3 0 C3 2.64 3 5.28 3 8 C6.3 8 9.6 8 13 8 C13 5.36 13 2.72 13 0 C13.99 0 14.98 0 16 0 C16 6.93 16 13.86 16 21 C15.01 21 14.02 21 13 21 C13 17.7 13 14.4 13 11 C9.7 11 6.4 11 3 11 C3 14.3 3 17.6 3 21 C2.01 21 1.02 21 0 21 C0 14.07 0 7.14 0 0 Z " fill="#000000" transform="translate(360,249)"/>
<path d="M0 0 C3.96 0 7.92 0 12 0 C12 0.99 12 1.98 12 3 C9.36 3.33 6.72 3.66 4 4 C4 5.32 4 6.64 4 8 C6.64 8 9.28 8 12 8 C12 8.99 12 9.98 12 11 C9.36 11.33 6.72 11.66 4 12 C4 13.98 4 15.96 4 18 C6.64 18 9.28 18 12 18 C12 18.99 12 19.98 12 21 C8.04 21 4.08 21 0 21 C0 14.07 0 7.14 0 0 Z " fill="#000000" transform="translate(529,249)"/>
<path d="M0 0 C0.66 1.65 1.32 3.3 2 5 C1.01 4.67 0.02 4.34 -1 4 C-3.73477969 3.61404319 -6.27542622 3.50153328 -9 4 C-11.26051003 6.01742082 -11.26051003 6.01742082 -12 9 C-12.01370127 12.17037671 -12.01370127 12.17037671 -11 15 C-7.1184112 17.58772586 -5.46573523 16.87719799 -1 16 C-0.01 15.67 0.98 15.34 2 15 C1.75 17.375 1.75 17.375 1 20 C-1.07735192 21.55801394 -2.78839484 21.95424753 -5.3125 22.5 C-9.48194234 21.7242898 -12.10793007 19.00091127 -15 16 C-16.53214888 12.93570224 -16.22938548 10.3834358 -16 7 C-12.59448003 -0.8864673 -7.6622365 -1.42855257 0 0 Z " fill="#000000" transform="translate(350,249)"/>
<path d="M0 0 C2.9375 0.875 2.9375 0.875 4.3125 2.9375 C4.51875 3.576875 4.725 4.21625 4.9375 4.875 C2.2975 4.875 -0.3425 4.875 -3.0625 4.875 C-3.0625 5.535 -3.0625 6.195 -3.0625 6.875 C-1.30575879 8.2030064 -1.30575879 8.2030064 0.875 9.4375 C4.88097826 11.81847826 4.88097826 11.81847826 5.9375 12.875 C5.59004237 19.12923729 5.59004237 19.12923729 3.1875 21.875 C0.23178132 23.18865275 -1.04611106 23.00614585 -4.0625 21.875 C-6.375 19.9375 -6.375 19.9375 -8.0625 17.875 C-8.0625 17.215 -8.0625 16.555 -8.0625 15.875 C-6.7425 15.545 -5.4225 15.215 -4.0625 14.875 C-3.7325 15.865 -3.4025 16.855 -3.0625 17.875 C-1.7425 17.875 -0.4225 17.875 0.9375 17.875 C1.2675 16.225 1.5975 14.575 1.9375 12.875 C1.009375 12.606875 0.08125 12.33875 -0.875 12.0625 C-5.58557692 10.30757919 -5.58557692 10.30757919 -7.0625 7.875 C-6.9375 4.8125 -6.9375 4.8125 -6.0625 1.875 C-3.0625 -0.125 -3.0625 -0.125 0 0 Z " fill="#000000" transform="translate(556.0625,248.125)"/>
<path d="M0 0 C3.96 0 7.92 0 12 0 C12 0.99 12 1.98 12 3 C9.03 3 6.06 3 3 3 C3 4.65 3 6.3 3 8 C5.64 8 8.28 8 11 8 C11 8.99 11 9.98 11 11 C8.36 11 5.72 11 3 11 C3 13.31 3 15.62 3 18 C5.97 18 8.94 18 12 18 C12 18.99 12 19.98 12 21 C8.04 21 4.08 21 0 21 C0 14.07 0 7.14 0 0 Z " fill="#000000" transform="translate(315,249)"/>
<path d="M0 0 C4.62 0 9.24 0 14 0 C14 0.99 14 1.98 14 3 C12.35 3 10.7 3 9 3 C9 8.94 9 14.88 9 21 C7.68 21 6.36 21 5 21 C5 15.06 5 9.12 5 3 C3.35 3 1.7 3 0 3 C0 2.01 0 1.02 0 0 Z " fill="#000000" transform="translate(294,249)"/>
<path d="M0 0 C1.32 0 2.64 0 4 0 C4 5.94 4 11.88 4 18 C5.65 18 7.3 18 9 18 C9 18.99 9 19.98 9 21 C6.03 21 3.06 21 0 21 C0 14.07 0 7.14 0 0 Z " fill="#000000" transform="translate(443,249)"/>
<path d="M0 0 C1.32 0 2.64 0 4 0 C4 6.93 4 13.86 4 21 C2.68 21 1.36 21 0 21 C0 14.07 0 7.14 0 0 Z " fill="#000000" transform="translate(516,249)"/>
</svg>
